rec1_007.mot
nRows=27
nColumns=19

name rec1_007.mot
datacolumns 19
datarows 27
range 15.0061193584 15.0581197035
endheader
time	ground_force_vx	ground_force_vy	ground_force_vz	ground_force_px	ground_force_py	ground_force_pz	1_ground_force_vx	1_ground_force_vy	1_ground_force_vz	1_ground_force_px	1_ground_force_py	1_ground_force_pz	ground_torque_x	ground_torque_y	ground_torque_z	1_ground_torque_x	1_ground_torque_y	1_ground_torque_z	
       15.0061193584	       21.2030988502	      604.2945657234	      -17.6540620077	       -0.7000000000	       -0.0180000000	        0.5600000000	       -5.1996696770	       28.2329731144	       -8.6555372624	       -0.7000000000	       -0.0180000000	       -0.5600000000	      307.7059749778	       -7.5450082712	      586.5854826222	      -13.7286050103	        5.9445269865	       23.4190126434	
       15.0081190148	       21.6108177150	      605.7688254401	      -17.8707632827	       -0.7000000000	       -0.0180000000	        0.5600000000	       -5.0752359427	       27.6894013278	       -8.6271278886	       -0.7000000000	       -0.0180000000	       -0.5600000000	      308.4370597215	       -7.5147875515	      587.0811935137	      -13.4176658227	        5.9822226069	       22.8532691517	
       15.0101193111	       22.0192786801	      607.2268310449	      -18.0947448546	       -0.7000000000	       -0.0180000000	        0.5600000000	       -4.9391844820	       27.1438881107	       -8.6072926731	       -0.7000000000	       -0.0180000000	       -0.5600000000	      309.1588419592	       -7.4808389004	      587.5532032259	      -13.1062588540	        6.0347913069	       22.2925601559	
       15.0121190875	       22.4306501129	      608.6611272351	      -18.3265013891	       -0.7000000000	       -0.0180000000	        0.5600000000	       -4.7911777631	       26.5971924869	       -8.5954781605	       -0.7000000000	       -0.0180000000	       -0.5600000000	      309.8677834903	       -7.4419352088	      587.9939558562	      -12.7947386224	        6.1018280497	       21.7383196960	
       15.0141193437	       22.8473476775	      610.0644625883	      -18.5664934411	       -0.7000000000	       -0.0180000000	        0.5600000000	       -4.6309727623	       26.0498941638	       -8.5909320113	       -0.7000000000	       -0.0180000000	       -0.5600000000	      310.5604622753	       -7.3974586888	      588.3962639406	      -12.4833441799	        6.1825021926	       21.1914361051	
       15.0161190801	       23.2716531427	      611.4302169485	      -18.8150651640	       -0.7000000000	       -0.0180000000	        0.5600000000	       -4.4585523602	       25.5020424067	       -8.5927122467	       -0.7000000000	       -0.0180000000	       -0.5600000000	      311.2337389998	       -7.3476784747	      588.7536647613	      -12.1720895599	        6.2755641485	       20.6517542891	
       15.0181193766	       23.7054358198	      612.7525342479	      -19.0724895060	       -0.7000000000	       -0.0180000000	        0.5600000000	       -4.2741874094	       24.9531467990	       -8.5995803221	       -0.7000000000	       -0.0180000000	       -0.5600000000	      311.8848406177	       -7.2931797255	      589.0603780484	      -11.8608460573	        6.3793042867	       20.1181762800	
       15.0201191129	       24.1501352547	      614.0261835788	      -19.3389107943	       -0.7000000000	       -0.0180000000	        0.5600000000	       -4.0784574708	       24.4025315577	       -8.6099111189	       -0.7000000000	       -0.0180000000	       -0.5600000000	      312.5112734235	       -7.2341102448	      589.3109434332	      -11.5495111335	        6.4915373363	       19.5894450486	
       15.0221194492	       24.6069785229	      615.2465742775	      -19.6143160060	       -0.7000000000	       -0.0180000000	        0.5600000000	       -3.8722494591	       23.8496091740	       -8.6219991144	       -0.7000000000	       -0.0180000000	       -0.5600000000	      313.1108092892	       -7.1703203304	      589.5002062466	      -11.2379940921	        6.6099600586	       19.0647535468	
       15.0241191455	       25.0773648109	      616.4099229127	      -19.8987394739	       -0.7000000000	       -0.0180000000	        0.5600000000	       -3.6567419127	       23.2939828115	       -8.6343858212	       -0.7000000000	       -0.0180000000	       -0.5600000000	      313.6816521817	       -7.1020158802	      589.6236342492	      -10.9261809680	        6.7324582464	       18.5437979877	
       15.0261195619	       25.5631620054	      617.5135544411	      -20.1923980131	       -0.7000000000	       -0.0180000000	        0.5600000000	       -3.4334026783	       22.7355110651	       -8.6458618910	       -0.7000000000	       -0.0180000000	       -0.5600000000	      314.2225781515	       -7.0299156563	      589.6778078385	      -10.6140494299	        6.8571099389	       18.0265372925	
       15.0281191783	       26.0667087367	      618.5563288404	      -20.4957090194	       -0.7000000000	       -0.0180000000	        0.5600000000	       -3.2039203319	       22.1741542641	       -8.6554559617	       -0.7000000000	       -0.0180000000	       -0.5600000000	      314.7330131564	       -6.9550373310	      589.6610774977	      -10.3016681735	        6.9822429967	       17.5126678428	
       15.0301195547	       26.5905937783	      619.5389603291	      -20.8092953553	       -0.7000000000	       -0.0180000000	        0.5600000000	       -2.9700377070	       21.6097778703	       -8.6623010397	       -0.7000000000	       -0.0180000000	       -0.5600000000	      315.2131024355	       -6.8783137307	      589.5740534668	       -9.9891086197	        7.1063592850	       17.0013266525	
       15.0321192109	       27.1372771775	      620.4640715607	      -21.1340394098	       -0.7000000000	       -0.0180000000	        0.5600000000	       -2.7333580252	       21.0422131693	       -8.6653394758	       -0.7000000000	       -0.0180000000	       -0.5600000000	      315.6637546327	       -6.7999751976	      589.4196944620	       -9.6764608517	        7.2279225015	       16.4913949088	
       15.0341195074	       27.7086790644	      621.3358485196	      -21.4712962069	       -0.7000000000	       -0.0180000000	        0.5600000000	       -2.4952088461	       20.4714931024	       -8.6630905078	       -0.7000000000	       -0.0180000000	       -0.5600000000	      316.0866353379	       -6.7192755387	      589.2028334820	       -9.3639167788	        7.3451841779	       15.9820342586	
       15.0361192437	       28.3059359515	      622.1594695655	      -21.8228745304	       -0.7000000000	       -0.0180000000	        0.5600000000	       -2.2567384055	       19.8981866674	       -8.6534017035	       -0.7000000000	       -0.0180000000	       -0.5600000000	      316.4840131121	       -6.6349642030	      588.9293062828	       -9.0519082991	        7.4558480616	       15.4732568576	
       15.0381195400	       28.9293860127	      622.9408141038	      -22.1906953172	       -0.7000000000	       -0.0180000000	        0.5600000000	       -2.0192577945	       19.3235716422	       -8.6334557117	       -0.7000000000	       -0.0180000000	       -0.5600000000	      316.8585838948	       -6.5460068814	      588.6054399042	       -8.7411261638	        7.5569202086	       14.9660827759	
       15.0401193164	       29.5788015032	      623.6865034636	      -22.5765532634	       -0.7000000000	       -0.0180000000	        0.5600000000	       -1.7845261424	       18.7494601240	       -8.6000111998	       -0.7000000000	       -0.0180000000	       -0.5600000000	      317.2134823545	       -6.4518664507	      588.2381168234	       -8.4323765507	        7.6448210884	       14.4620687450	
       15.0421196127	       30.2537150721	      624.4040372763	      -22.9818996437	       -0.7000000000	       -0.0180000000	        0.5600000000	       -1.5547482369	       18.1779179772	       -8.5493836898	       -0.7000000000	       -0.0180000000	       -0.5600000000	      317.5523412620	       -6.3520536185	      587.8350779506	       -8.1265363792	        7.7153510735	       13.9627851246	
       15.0441193092	       30.9535894151	      625.1018659123	      -23.4076536846	       -0.7000000000	       -0.0180000000	        0.5600000000	       -1.3322822628	       17.6109886575	       -8.4774661862	       -0.7000000000	       -0.0180000000	       -0.5600000000	      317.8792834116	       -6.2456591885	      587.4052282977	       -7.8245383568	        7.7638504518	       13.4694324599	
       15.0461196455	       31.6777995594	      625.7891340863	      -23.8541473351	       -0.7000000000	       -0.0180000000	        0.5600000000	       -1.1192169888	       17.0505853178	       -8.3800131035	       -0.7000000000	       -0.0180000000	       -0.5600000000	      318.1988238514	       -6.1319282813	      586.9584927085	       -7.5273243587	        7.7856085470	       12.9827804427	
       15.0481193418	       32.4254345818	      626.4750685584	      -24.3209988859	       -0.7000000000	       -0.0180000000	        0.5600000000	       -0.9170710093	       16.4986435206	       -8.2530247654	       -0.7000000000	       -0.0180000000	       -0.5600000000	      318.5156281795	       -6.0111792687	      586.5050638475	       -7.2358655768	        7.7762705145	       12.5035560686	
       15.0501195982	       33.1950036743	      627.1683279298	      -24.8071352627	       -0.7000000000	       -0.0180000000	        0.5600000000	       -0.7267323176	       15.9571773573	       -8.0933855713	       -0.7000000000	       -0.0180000000	       -0.5600000000	      318.8343189723	       -5.8847292698	      586.0544588564	       -6.9510999665	        7.7324401311	       12.0326905478	
       15.0521193746	       33.9843206865	      627.8767170492	      -25.3109111214	       -0.7000000000	       -0.0180000000	        0.5600000000	       -0.5486590296	       15.4282114688	       -7.8994330822	       -0.7000000000	       -0.0180000000	       -0.5600000000	      319.1594344206	       -5.7542574355	      585.6149154266	       -6.6738638560	        7.6521257437	       11.5713569898	
       15.0541196709	       34.7906789190	      628.6075219355	      -25.8299617454	       -0.7000000000	       -0.0180000000	        0.5600000000	       -0.3832819555	       14.9137135398	       -7.6712355433	       -0.7000000000	       -0.0180000000	       -0.5600000000	      319.4954367136	       -5.6214152731	      585.1936967027	       -6.4049171699	        7.5348802021	       11.1209184248	
       15.0561194072	       35.6112492989	      629.3681131570	      -26.3611427389	       -0.7000000000	       -0.0180000000	        0.5600000000	       -0.2313136389	       14.4153776327	       -7.4108072798	       -0.7000000000	       -0.0180000000	       -0.5600000000	      319.8467915023	       -5.4878374541	      584.7981210763	       -6.1448577579	        7.3819818900	       10.6825477444	
       15.0581197035	       36.4435286962	      630.1662321297	      -26.9006725678	       -0.7000000000	       -0.0180000000	        0.5600000000	       -0.0937266837	       13.9343908466	       -7.1219173631	       -0.7000000000	       -0.0180000000	       -0.5600000000	      320.2180251166	       -5.3556468382	      584.4363713680	       -5.8940403280	        7.1963234061	       10.2568910819	
